<svg xmlns="http://www.w3.org/2000/svg" viewBox="0 0 185.7 44">
<!-- SVG created with Arrow, by QuiverAI (https://quiver.ai) -->
  <style type="text/css">.cls-0 {fill:#FFFCFC;}
.cls-1 {fill:#09314D;}
.cls-2 {fill:#0B4C7A;}
.cls-3 {fill:#0A4676;}
.cls-4 {fill:#16A0C4;}
.cls-5 {fill:#FFFFFF;}
.cls-6 {fill:none;}
.cls-7 {fill:#1AA5CA;}</style>
  <path class="cls-1" d="m147 9.2h-0.9l-0.3 28.8 0.7 0.9c0.5-0.3 0.8-0.7 1.1-1.1l-0.6-28.6z"/>
  <path class="cls-1" d="m112.1 9.4h-1.1l-0.2 29.6 0.8 0.4c0.2-0.4 0.6-0.4 0.9-0.8v-28.9l-0.4-0.3z"/>
  <polygon class="cls-1" points="77.5 9.2 76.2 9.2 76.2 39 76.9 39.3 77.5 38.6"/>
  <path class="cls-1" d="m41.9 9.4-1.2-0.4v29.9l0.9 0.1 0.4-0.7-0.1-28.9z"/>
  <path class="cls-2" d="m41.2 9.3c-0.9-1.6-5.7-6-8.6-6.1h-22.5c-2.7 0-7.1 4.2-7.1 7.4s0 25.7 0 27c0.1 2.8 1.9 3.1 4 3.1h31.4c1.2 0 2.6-0.6 2.7-3.2 0.1-1.8 0.1-27.3 0.1-28.2z"/>
  <path class="cls-3" d="m4.1 39.5 3.9-9.2 26.6-0.4 5.3 8.1c-0.3 2.1-0.9 2.6-3.2 2.6s-28.3 0.1-30.3 0c-1.8 0-2.2-0.7-2.3-1.1z"/>
  <path class="cls-2" d="m76.6 9.1c-0.7-1.1-1.8-2.5-3.3-3.4-1.9-1.5-2.7-2.6-5.3-2.5h-18.9c-2.4-0.1-6.6 3.8-7.7 6v28.9c0.3 1.4 1.1 2.6 2.8 2.6h29.6c2.3 0 2.9-0.3 2.9-3.4l-0.1-28.2z"/>
  <path class="cls-3" d="m42.6 39 4.1-8 24.5-1 4.3 9c-0.3 1.6-1 1.7-4.9 1.7h-26.1c-1.4-0.1-1.6-0.6-1.9-1.7z"/>
  <path class="cls-2" d="m111.4 9.1c-1.2-2.1-5-5.6-7.8-5.9h-18.6c-2.6 0-6.1 3.2-7.6 5.7v29.2c0.6 1.2 1.2 2.5 3.2 2.6h27.4c2.5 0 3.4-0.6 3.6-2.7l-0.2-28.9z"/>
  <path class="cls-3" d="m79.2 39.5 4.3-8.2 22-1.3 4.7 9c0.2 1.4-1 1.7-3.8 1.7s-24.2 0-25.5 0c-1.4 0-1.5-0.6-1.7-1.2z"/>
  <path class="cls-2" d="m146.3 9.1c-1.2-2.1-4.9-5.5-7.5-5.9h-17.9c-3-0.1-7.5 4-8.5 6.2v28.7c0 1.6 1 2.5 2.6 2.6h27.8c2.8-0.1 3.5-0.1 3.5-3.3v-28.3z"/>
  <path class="cls-3" d="m113.5 39 4.4-8.4 23.1-0.3 4.4 8.4c0 1.9-1.2 1.9-3.8 1.9-3.5 0-23.7 0.1-26.2 0-1.8 0-1.9-0.7-1.9-1.6z"/>
  <path class="cls-2" d="m176.6 3.7c-0.6-0.4-1.4-0.6-2.4-0.6h-18.7c-2.5-0.1-6.7 3.3-8.5 6.1v27.8c-0.1 2.5 1 3.6 2.7 3.7h29.3c2.1-0.1 3.6-1.1 3.7-3.7 0.1-2.4 0-25.9 0-27 0.1-2.1-3.5-4.8-6.1-6.3z"/>
  <path class="cls-3" d="m147.5 38.3 3.5-7.3 26.4-2.1 4.4 8.7c0.1 2.3-1.4 3-3.1 3.1h-29.1c-1.9-0.1-2.1-1.2-2.1-2.4z"/>
  <path class="cls-7" d="m34.9 6c0-2.9-2-2.8-4.5-2.8h-19.8c-1.4 0-3.6 0.8-3.5 2.9v22.6c0 1.6 1.3 3.3 3.4 3.4 3.5 0.1 17.5 0 20.5-0.1 3.6 0 3.9-3.1 3.9-3.7v-22.3z"/>
  <path class="cls-7" d="m71.6 6c0-2.5-2-2.8-4.4-2.8h-17.6c-1.6 0-3.6 0.4-3.6 3.2l-0.1 22.2c0 1.5 1.2 3.5 3.5 3.5 3.5 0.1 15.8 0.1 18.7 0 2.4 0 3.6-2 3.5-3.5v-22.6z"/>
  <path class="cls-7" d="m106.1 6.4c0-2.2-0.7-3.2-3.1-3.2h-17.5c-1.8 0-3.8 0.8-3.8 2.9v22.3c0 1.5 1.1 3.7 3.7 3.7 3.5 0.1 14.6 0 17 0 2 0 3.7-1.1 3.7-3.8v-21.9z"/>
  <path class="cls-7" d="m141.4 6.1c0-2.2-1.7-2.9-3.9-2.9h-16.8c-1.7 0-3.8 0.7-3.9 2.5v22.6c0 2.3 1.6 3.7 3.6 3.8 3.5 0.1 14.5 0 16.5 0 3 0 4.5-1.5 4.5-4v-22z"/>
  <path class="cls-7" d="m177.5 6.6c0-2.4-0.9-3.5-2.9-3.5h-18.1c-3.6 0-5.3 0.8-5.3 3.5v21.7c0 1.8 1.2 3.8 3.9 3.8h17.8c2.5 0 4.6-1.4 4.6-4.1v-21.4z"/>
  <path class="cls-5" d="m11.2 12.4c-0.1-1 1.2-1.2 2.3-1.1 0.6 0.1 1 0.4 1.2 1.3l1.9 8.5 2.3-8.7c0.2-0.7 0.6-0.8 1.1-0.8 1.6 0 2.2 0 2.5 1.3l2 8.2 2.1-8.7c0.1-1 0.8-1.2 1.5-1.2 1.5 0 2.1 0.4 1.9 1.4l-3.3 12.4c-0.1 0.5-1.3 0.6-3 0.6-0.6 0-0.8-0.4-1-1.1l-2-7.4-2.2 7.9c-0.3 0.5-1.1 0.5-3.3 0.5-0.5 0-0.7-0.9-0.8-1.6l-3.2-11.5z"/>
  <path class="cls-5" d="m56 11.6c0.4-1.1 0.6-1.6 2.4-1.6s2.2 0.4 2.6 1.6l4.5 12.4c0.4 1.6-1 1.6-2.3 1.5-0.6 0-1-0.5-1.2-1.4l-0.6-1.7h-5.8l-0.9 2.5c-0.6 0.8-3.7 1-3.5-0.4l4.8-12.9zm0.6 7.9h3.8l-2-5.5-1.8 5.5z"/>
  <path class="cls-5" d="m87.7 11.4c0-1.2 0.7-1.4 1.8-1.4s1.6 0.4 1.6 1.2v5l4.6-5.2c0.8-0.9 1.2-1.1 2.3-1 2 0 1.7 1.1 1.1 1.6l-4.9 5.6 0.4 0.3 4.5 6.2c1 1.7-0.2 1.9-1.7 1.9-0.8 0-1-0.1-1.7-1l-3.5-5.1-1.1 1.2v3.1c0 1.4-0.6 1.8-1.9 1.7-1.5-0.1-1.5-0.5-1.5-1.1v-13z"/>
  <path class="cls-5" d="m126.7 10.6c0-1 0.8-1.9 1.8-1.9 1.1 0 2 0.8 2 1.9s-0.8 2-1.8 2c-1.1 0.1-2-0.9-2-2zm0.2 5.1c0-1 0.6-1.5 1.7-1.5 1 0 1.6 0.5 1.6 1.4v8.5c0 1.3-0.5 1.4-1.6 1.4s-1.7-0.4-1.7-1.1v-8.7z"/>
  <path class="cls-5" d="m158.6 10h7.1c3.3 0.2 5.2 4 2.3 6.9l-0.3 0.2c3.8 1.5 3.4 8-1.7 8.3h-6.4c-0.7 0.1-1.1-0.4-1-1.2v-13.2c0.1-0.5 0.3-0.9 0.8-1h-0.8zm3.6 2.9h-0.2v3.2h2c3.2 0.3 3.9-3.4 0.6-3.4l-2.4 0.2zm0.7 5.8h-0.8v3.8h2.3c3.2 0.1 3.1-3.6 1.2-3.8h-2.7z"/>
  <line class="cls-6" x1="-.6" x2="186.3" y1="-1.9" y2="-1.9"/>
</svg>